<?xml version="1.0" encoding="UTF-8"?>
<svg version="1.1" xmlns="http://www.w3.org/2000/svg" width="200" height="200">
<path d="M0 0 C0.78761719 0.03222656 1.57523438 0.06445312 2.38671875 0.09765625 C3.16660156 0.10667969 3.94648438 0.11570313 4.75 0.125 C8.61234625 1.84520463 9.59709767 5.43300607 11.07421875 9.16015625 C12.64098702 13.3402214 14.08851707 17.55431308 15.51171875 21.78515625 C16.30028367 24.09782597 17.08934248 26.41032735 17.87890625 28.72265625 C18.44303223 30.38167969 18.44303223 30.38167969 19.01855469 32.07421875 C20.35809449 35.98998728 21.73573162 39.89101177 23.13671875 43.78515625 C23.51957031 44.84992188 23.90242188 45.9146875 24.296875 47.01171875 C24.55339844 47.72070312 24.80992187 48.4296875 25.07421875 49.16015625 C27.46567145 46.76870355 26.38547993 40.14746055 26.39111328 36.79467773 C26.22135044 25.53688668 22.56994008 16.49131602 17.34375 6.62109375 C16.07421875 4.16015625 16.07421875 4.16015625 15.07421875 1.16015625 C18.87258939 0.61270425 22.29295749 0.4195506 26.07421875 1.16015625 C31.763604 5.93785502 33.88420811 14.30935375 36.07421875 21.16015625 C36.56921875 22.64515625 36.56921875 22.64515625 37.07421875 24.16015625 C37.33582336 28.15557208 37.30575021 32.15710126 37.32421875 36.16015625 C37.34484375 37.24683594 37.36546875 38.33351562 37.38671875 39.453125 C37.44725788 52.1209381 34.08489082 65.08221397 26.07421875 75.16015625 C25.08421875 75.16015625 24.09421875 75.16015625 23.07421875 75.16015625 C19.55733737 66.08442494 16.13167705 56.97899512 12.76171875 47.84765625 C12.30732422 46.61853516 11.85292969 45.38941406 11.38476562 44.12304688 C10.28049189 41.13569582 9.17698668 38.14806342 8.07421875 35.16015625 C8.0491626 36.33634521 8.02410645 37.51253418 7.99829102 38.72436523 C7.90439069 43.07230247 7.80412827 47.42007341 7.7019043 51.76782227 C7.65848942 53.65254843 7.61681932 55.53731561 7.5769043 57.42211914 C7.51935982 60.12528874 7.45562071 62.82825061 7.390625 65.53125 C7.36555626 66.80312416 7.36555626 66.80312416 7.33998108 68.10069275 C7.18809046 74.04628454 7.18809046 74.04628454 6.07421875 75.16015625 C4.55493837 75.23195589 3.03254393 75.24407632 1.51171875 75.22265625 C0.27228516 75.20912109 0.27228516 75.20912109 -0.9921875 75.1953125 C-1.94931641 75.17791016 -1.94931641 75.17791016 -2.92578125 75.16015625 C-3.07989019 66.39778177 -3.22806868 57.63533266 -3.36874485 48.87273216 C-3.43425613 44.80360816 -3.50178478 40.73453878 -3.57397461 36.66552734 C-3.64360848 32.73635172 -3.70787673 28.80712115 -3.76847649 24.87779617 C-3.79249216 23.38111834 -3.8184183 21.88446986 -3.84631538 20.38785934 C-3.88515477 18.28645156 -3.91710756 16.1850406 -3.94750977 14.08349609 C-3.96749527 12.88880707 -3.98748077 11.69411804 -4.0080719 10.46322632 C-3.7551779 0.31229674 -3.7551779 0.31229674 0 0 Z " fill="#666565" transform="translate(130.92578125,63.83984375)"/>
<path d="M0 0 C13.86 0 27.72 0 42 0 C42.97851742 3.9140697 43.08667146 6.86785214 43.02172852 10.87988281 C43.01212097 11.56321686 43.00251343 12.2465509 42.99261475 12.95059204 C42.95972381 15.20154447 42.91935417 17.45229675 42.87890625 19.703125 C42.85459543 21.26681825 42.83075236 22.83051884 42.80735779 24.39422607 C42.7446125 28.50423558 42.67551894 32.61411474 42.60510254 36.72399902 C42.52188378 41.65822771 42.44655077 46.59258232 42.36989594 51.5269165 C42.25263805 59.01805819 42.12536482 66.50896983 42 74 C28.14 74 14.28 74 0 74 C0 49.58 0 25.16 0 0 Z M10 11 C9.90653085 12.65738443 9.88255023 14.31874644 9.88647461 15.97875977 C9.88655014 17.03978409 9.88662567 18.10080841 9.88670349 19.19398499 C9.89186478 20.348134 9.89702606 21.50228302 9.90234375 22.69140625 C9.9037587 23.86638168 9.90517365 25.04135712 9.90663147 26.25193787 C9.91225008 30.02215064 9.92480574 33.79230504 9.9375 37.5625 C9.9425126 40.11132727 9.94707592 42.66015547 9.95117188 45.20898438 C9.96222556 51.4726789 9.97950266 57.73632954 10 64 C17.26 64 24.52 64 32 64 C32 46.51 32 29.02 32 11 C29.26097274 10.08699091 27.6255173 9.87153392 24.8046875 9.8671875 C24.00675781 9.86589844 23.20882812 9.86460938 22.38671875 9.86328125 C21.55785156 9.86714844 20.72898437 9.87101562 19.875 9.875 C19.03839844 9.87113281 18.20179687 9.86726563 17.33984375 9.86328125 C13.35284244 9.46850047 13.35284244 9.46850047 10 11 Z " fill="#676566" transform="translate(80,65)"/>
<path d="M0 0 C0.02902429 3.27081471 0.04680684 6.5415963 0.0625 9.8125 C0.07087891 10.74126953 0.07925781 11.67003906 0.08789062 12.62695312 C0.09111328 13.51962891 0.09433594 14.41230469 0.09765625 15.33203125 C0.10289307 16.15421143 0.10812988 16.9763916 0.11352539 17.82348633 C0 20 0 20 -1 23 C-3.97 23 -6.94 23 -10 23 C-10.51695608 18.60587331 -11 14.42613977 -11 10 C-15.29 10 -19.58 10 -24 10 C-24.61875 11.44375 -25.2375 12.8875 -25.875 14.375 C-26.22304688 15.18710938 -26.57109375 15.99921875 -26.9296875 16.8359375 C-28.37349943 21.10414066 -29.11634171 25.58170857 -30 30 C-20.43 30.33 -10.86 30.66 -1 31 C-0.29542407 35.93203149 0.12815482 40.16310892 0.1328125 45.0703125 C0.13474609 47.03291016 0.13474609 47.03291016 0.13671875 49.03515625 C0.13462402 49.70691895 0.1325293 50.37868164 0.13037109 51.07080078 C0.12499555 53.126702 0.13034768 55.18238655 0.13671875 57.23828125 C0.13542969 58.54410156 0.13414063 59.84992188 0.1328125 61.1953125 C0.13168457 62.38141113 0.13055664 63.56750977 0.12939453 64.78955078 C0 68 0 68 -1 73 C-10.9 73 -20.8 73 -31 73 C-32.11375 70.81375 -33.2275 68.6275 -34.375 66.375 C-34.72224121 65.69872559 -35.06948242 65.02245117 -35.42724609 64.32568359 C-40.71755725 53.83969466 -40.71755725 53.83969466 -39 48 C-36.03 48 -33.06 48 -30 48 C-29.62488281 48.92683594 -29.24976563 49.85367188 -28.86328125 50.80859375 C-28.35152344 52.00613281 -27.83976562 53.20367187 -27.3125 54.4375 C-26.81363281 55.63246094 -26.31476562 56.82742187 -25.80078125 58.05859375 C-24.33085471 61.1299673 -24.33085471 61.1299673 -21.79296875 61.84765625 C-20.87128906 61.89792969 -19.94960938 61.94820312 -19 62 C-16.36 62.33 -13.72 62.66 -11 63 C-11 56.07 -11 49.14 -11 42 C-25.85 41.505 -25.85 41.505 -41 41 C-44.17944499 34.64111002 -40.73089816 21.93913884 -38.66796875 15.359375 C-38.17043662 13.9419109 -37.65673113 12.52999278 -37.125 11.125 C-36.88064209 10.47837402 -36.63628418 9.83174805 -36.38452148 9.16552734 C-35.66903468 7.40922684 -34.83688666 5.70180303 -34 4 C-33.53207031 3.04738281 -33.06414063 2.09476562 -32.58203125 1.11328125 C-28.1965367 -2.47605695 -23.05244568 -1.86587847 -17.5625 -1.9375 C-16.43005859 -1.97939453 -15.29761719 -2.02128906 -14.13085938 -2.06445312 C-8.84205856 -2.20469829 -4.86994453 -2.25772654 0 0 Z " fill="#666465" transform="translate(75,66)"/>
<path d="M0 0 C12.87345181 -0.02313161 25.74689872 -0.04091929 38.62036705 -0.05181217 C44.59750475 -0.0570392 50.57462827 -0.0641336 56.55175781 -0.07543945 C62.31591558 -0.0862747 68.08005968 -0.0922782 73.84422684 -0.09487724 C76.04753459 -0.09673034 78.25084156 -0.10034875 80.45414352 -0.10573006 C83.53113189 -0.11294892 86.60806317 -0.11399058 89.68505859 -0.11352539 C90.60359116 -0.11712067 91.52212372 -0.12071594 92.4684906 -0.12442017 C93.30424118 -0.1230455 94.13999176 -0.12167084 95.00106812 -0.12025452 C95.72928457 -0.12117631 96.45750103 -0.1220981 97.20778465 -0.12304783 C99 0 99 0 101 1 C100.34 2.32 99.68 3.64 99 5 C98.34 5 97.68 5 97 5 C96.67 5.99 96.34 6.98 96 8 C89.15483323 14.11257367 81.63142809 18.86017951 73 22 C72.14792969 22.31839844 71.29585938 22.63679688 70.41796875 22.96484375 C53.82345939 28.11650116 33.87260962 26.30267739 18.54150391 18.36328125 C11.08937764 14.25232361 5.01544383 8.990891 -1 3 C-0.67 2.01 -0.34 1.02 0 0 Z " fill="#0570BB" transform="translate(51,143)"/>
<path d="M0 0 C1.48662102 1.28308018 2.96600067 2.57460524 4.4375 3.875 C5.33726562 4.56851563 6.23703125 5.26203125 7.1640625 5.9765625 C9.55719692 7.9749531 10.11208919 8.83783245 10.4375 11.875 C5.05481109 12.77655201 -0.11939015 13.0179908 -5.57128906 13.00439453 C-6.44531372 13.00614685 -7.31933838 13.00789917 -8.21984863 13.00970459 C-11.08929468 13.01408191 -13.9586784 13.0112007 -16.828125 13.0078125 C-18.82875582 13.00848648 -20.82938655 13.00945729 -22.83001709 13.01071167 C-27.01266259 13.01218285 -31.19528668 13.01005181 -35.37792969 13.00537109 C-40.74369118 12.99965936 -46.10940282 13.00296559 -51.47516251 13.00894356 C-55.60146462 13.01255222 -59.72775485 13.01140943 -63.85405731 13.00881577 C-65.83324947 13.00814811 -67.8124427 13.0089693 -69.79163361 13.01129532 C-72.551548 13.01382842 -75.31138077 13.00997256 -78.07128906 13.00439453 C-78.89107239 13.00641876 -79.71085571 13.00844299 -80.55548096 13.01052856 C-83.81778507 12.99828399 -86.44526062 12.91407979 -89.5625 11.875 C-87.55460852 5.77850047 -83.66478833 3.44660183 -78.5625 -0.125 C-77.26699219 -1.04732422 -77.26699219 -1.04732422 -75.9453125 -1.98828125 C-53.50915125 -17.17333531 -21.51967935 -17.06952409 0 0 Z " fill="#0670BA" transform="translate(140.5625,48.125)"/>
<path d="M0 0 C2.55579325 0.10457419 4.6468866 0.33682566 7.07421875 1.16015625 C9.20414626 3.53143532 10.07738216 6.16461196 11.07421875 9.16015625 C11.37070313 9.93746094 11.6671875 10.71476562 11.97265625 11.515625 C13.41710802 15.47130256 14.48723106 18.89236237 14.07421875 23.16015625 C11.42004085 20.00404212 10.15154811 17.00845049 8.88671875 13.09765625 C8.54253906 12.05480469 8.19835937 11.01195313 7.84375 9.9375 C7.07421875 7.16015625 7.07421875 7.16015625 7.07421875 4.16015625 C4.76421875 4.16015625 2.45421875 4.16015625 0.07421875 4.16015625 C-0.25578125 26.93015625 -0.58578125 49.70015625 -0.92578125 73.16015625 C1.05421875 73.16015625 3.03421875 73.16015625 5.07421875 73.16015625 C5.07421875 57.32015625 5.07421875 41.48015625 5.07421875 25.16015625 C6.39421875 25.49015625 7.71421875 25.82015625 9.07421875 26.16015625 C9.28175781 26.95035156 9.48929688 27.74054688 9.703125 28.5546875 C11.90417744 36.61293389 14.55567503 44.40703311 17.49072266 52.22705078 C19.84178323 58.49186818 22.02668865 64.78864955 24.07421875 71.16015625 C24.73421875 71.16015625 25.39421875 71.16015625 26.07421875 71.16015625 C28.48834341 67.71592081 29.89794204 64.20333344 31.19921875 60.22265625 C31.53179687 59.22363281 31.864375 58.22460938 32.20703125 57.1953125 C35.80908895 44.58811054 35.89282327 28.40744273 31.07421875 16.16015625 C28.67224834 22.69728355 28.87958986 28.88242276 29.01171875 35.78515625 C29.04626642 38.00644364 29.07637941 40.22780546 29.1015625 42.44921875 C29.11952881 43.42584473 29.13749512 44.4024707 29.15600586 45.40869141 C29.07578081 48.10760579 28.68463357 50.53486408 28.07421875 53.16015625 C26.09421875 53.65515625 26.09421875 53.65515625 24.07421875 54.16015625 C21.46478873 47.91287379 19.07478563 41.5846029 16.76171875 35.22265625 C16.48312012 34.47701416 16.20452148 33.73137207 15.91748047 32.96313477 C13.95894612 27.50597414 13.95894612 27.50597414 15.07421875 24.16015625 C17.97896198 29.71705634 20.30907292 35.22781368 22.32421875 41.16015625 C22.59234375 41.93488281 22.86046875 42.70960937 23.13671875 43.5078125 C23.78743642 45.39024576 24.4315394 47.2749635 25.07421875 49.16015625 C27.46567145 46.76870355 26.38547993 40.14746055 26.39111328 36.79467773 C26.22135044 25.53688668 22.56994008 16.49131602 17.34375 6.62109375 C16.07421875 4.16015625 16.07421875 4.16015625 15.07421875 1.16015625 C18.87258939 0.61270425 22.29295749 0.4195506 26.07421875 1.16015625 C31.763604 5.93785502 33.88420811 14.30935375 36.07421875 21.16015625 C36.56921875 22.64515625 36.56921875 22.64515625 37.07421875 24.16015625 C37.33582336 28.15557208 37.30575021 32.15710126 37.32421875 36.16015625 C37.34484375 37.24683594 37.36546875 38.33351562 37.38671875 39.453125 C37.44725788 52.1209381 34.08489082 65.08221397 26.07421875 75.16015625 C25.08421875 75.16015625 24.09421875 75.16015625 23.07421875 75.16015625 C19.55733737 66.08442494 16.13167705 56.97899512 12.76171875 47.84765625 C12.30732422 46.61853516 11.85292969 45.38941406 11.38476562 44.12304688 C10.28049189 41.13569582 9.17698668 38.14806342 8.07421875 35.16015625 C8.0491626 36.33634521 8.02410645 37.51253418 7.99829102 38.72436523 C7.90439069 43.07230247 7.80412827 47.42007341 7.7019043 51.76782227 C7.65848942 53.65254843 7.61681932 55.53731561 7.5769043 57.42211914 C7.51935982 60.12528874 7.45562071 62.82825061 7.390625 65.53125 C7.36555626 66.80312416 7.36555626 66.80312416 7.33998108 68.10069275 C7.18809046 74.04628454 7.18809046 74.04628454 6.07421875 75.16015625 C4.55493837 75.23195589 3.03254393 75.24407632 1.51171875 75.22265625 C0.27228516 75.20912109 0.27228516 75.20912109 -0.9921875 75.1953125 C-1.94931641 75.17791016 -1.94931641 75.17791016 -2.92578125 75.16015625 C-3.07989019 66.39778177 -3.22806868 57.63533266 -3.36874485 48.87273216 C-3.43425613 44.80360816 -3.50178478 40.73453878 -3.57397461 36.66552734 C-3.64360848 32.73635172 -3.70787673 28.80712115 -3.76847649 24.87779617 C-3.79249216 23.38111834 -3.8184183 21.88446986 -3.84631538 20.38785934 C-3.88515477 18.28645156 -3.91710756 16.1850406 -3.94750977 14.08349609 C-3.96749527 12.88880707 -3.98748077 11.69411804 -4.0080719 10.46322632 C-3.7551779 0.31229674 -3.7551779 0.31229674 0 0 Z " fill="#4D484A" transform="translate(130.92578125,63.83984375)"/>
<path d="M0 0 C0.02902429 3.27081471 0.04680684 6.5415963 0.0625 9.8125 C0.07087891 10.74126953 0.07925781 11.67003906 0.08789062 12.62695312 C0.09111328 13.51962891 0.09433594 14.41230469 0.09765625 15.33203125 C0.10289307 16.15421143 0.10812988 16.9763916 0.11352539 17.82348633 C0 20 0 20 -1 23 C-3.97 23 -6.94 23 -10 23 C-10.51695608 18.60587331 -11 14.42613977 -11 10 C-15.29 10 -19.58 10 -24 10 C-24.61875 11.44375 -25.2375 12.8875 -25.875 14.375 C-26.22304688 15.18710938 -26.57109375 15.99921875 -26.9296875 16.8359375 C-28.37349943 21.10414066 -29.11634171 25.58170857 -30 30 C-20.43 30.33 -10.86 30.66 -1 31 C-0.29542407 35.93203149 0.12815482 40.16310892 0.1328125 45.0703125 C0.13474609 47.03291016 0.13474609 47.03291016 0.13671875 49.03515625 C0.13462402 49.70691895 0.1325293 50.37868164 0.13037109 51.07080078 C0.12499555 53.126702 0.13034768 55.18238655 0.13671875 57.23828125 C0.13542969 58.54410156 0.13414063 59.84992188 0.1328125 61.1953125 C0.13168457 62.38141113 0.13055664 63.56750977 0.12939453 64.78955078 C0 68 0 68 -1 73 C-10.9 73 -20.8 73 -31 73 C-32.11375 70.81375 -33.2275 68.6275 -34.375 66.375 C-34.72224121 65.69872559 -35.06948242 65.02245117 -35.42724609 64.32568359 C-40.71755725 53.83969466 -40.71755725 53.83969466 -39 48 C-36.03 48 -33.06 48 -30 48 C-29.62488281 48.92683594 -29.24976563 49.85367188 -28.86328125 50.80859375 C-28.35152344 52.00613281 -27.83976562 53.20367187 -27.3125 54.4375 C-26.81363281 55.63246094 -26.31476562 56.82742187 -25.80078125 58.05859375 C-24.33085471 61.1299673 -24.33085471 61.1299673 -21.79296875 61.84765625 C-20.87128906 61.89792969 -19.94960938 61.94820312 -19 62 C-16.36 62.33 -13.72 62.66 -11 63 C-11 56.07 -11 49.14 -11 42 C-25.85 41.505 -25.85 41.505 -41 41 C-44.00357525 34.9928495 -40.70509108 22.70236948 -39.04296875 16.33203125 C-36.55473136 9.27736568 -36.55473136 9.27736568 -34 8 C-34.53216209 10.73244763 -35.10204258 13.4492092 -35.71875 16.1640625 C-35.9765625 17.30617188 -36.234375 18.44828125 -36.5 19.625 C-36.7578125 20.75164062 -37.015625 21.87828125 -37.28125 23.0390625 C-38.17750099 27.97818478 -38.54553044 33.00083486 -39 38 C-29.1 38.33 -19.2 38.66 -9 39 C-8.979375 43.104375 -8.95875 47.20875 -8.9375 51.4375 C-8.928396 52.73357178 -8.91929199 54.02964355 -8.90991211 55.36499023 C-8.90741455 56.37762939 -8.90491699 57.39026855 -8.90234375 58.43359375 C-8.89710693 59.47572021 -8.89187012 60.51784668 -8.88647461 61.59155273 C-9 64 -9 64 -10 65 C-12.53049402 65.07313567 -15.03304837 65.09247527 -17.5625 65.0625 C-18.27341797 65.05798828 -18.98433594 65.05347656 -19.71679688 65.04882812 C-21.47790013 65.03700864 -23.23896036 65.01907263 -25 65 C-25 64.34 -25 63.68 -25 63 C-25.66 63 -26.32 63 -27 63 C-30 56.375 -30 56.375 -30 53 C-30.99 53 -31.98 53 -33 53 C-33 52.34 -33 51.68 -33 51 C-34.485 51.495 -34.485 51.495 -36 52 C-34.71666496 58.7941267 -32.8754374 64.1868439 -29 70 C-26.28995497 70.510605 -26.28995497 70.510605 -23.1171875 70.51171875 C-21.54106689 70.56138794 -21.54106689 70.56138794 -19.93310547 70.61206055 C-18.59393066 70.63695557 -17.25475586 70.66185059 -15.875 70.6875 C-11.62625 70.790625 -7.3775 70.89375 -3 71 C-3 58.79 -3 46.58 -3 34 C-12.49874648 33.7106869 -12.49874648 33.7106869 -21.99780273 33.43188477 C-23.76039429 33.3747229 -23.76039429 33.3747229 -25.55859375 33.31640625 C-26.76829834 33.27974854 -27.97800293 33.24309082 -29.22436523 33.20532227 C-32 33 -32 33 -33 32 C-33.41566367 22.69274834 -29.91341724 15.19783122 -26 7 C-23.54159395 6.97308315 -21.08348118 6.95320198 -18.625 6.9375 C-17.92632812 6.92912109 -17.22765625 6.92074219 -16.5078125 6.91210938 C-11.2265625 6.88671875 -11.2265625 6.88671875 -9 8 C-9 12.29 -9 16.58 -9 21 C-6.69 21 -4.38 21 -2 21 C-2.33 14.73 -2.66 8.46 -3 2 C-3.66 2.33 -4.32 2.66 -5 3 C-5 2.34 -5 1.68 -5 1 C-13.25 1 -21.5 1 -30 1 C-30.66 2.65 -31.32 4.3 -32 6 C-32.99 6.495 -32.99 6.495 -34 7 C-33.39651202 3.62046729 -32.37248367 1.49819516 -30 -1 C-27.44384766 -1.57763672 -27.44384766 -1.57763672 -24.4140625 -1.6796875 C-22.77050781 -1.7415625 -22.77050781 -1.7415625 -21.09375 -1.8046875 C-19.37671875 -1.83949219 -19.37671875 -1.83949219 -17.625 -1.875 C-16.48804687 -1.92140625 -15.35109375 -1.9678125 -14.1796875 -2.015625 C-8.86886836 -2.17769225 -4.89136754 -2.27502865 0 0 Z " fill="#4A4648" transform="translate(75,66)"/>
<path d="M0 0 C12.87345181 -0.02313161 25.74689872 -0.04091929 38.62036705 -0.05181217 C44.59750475 -0.0570392 50.57462827 -0.0641336 56.55175781 -0.07543945 C62.31591558 -0.0862747 68.08005968 -0.0922782 73.84422684 -0.09487724 C76.04753459 -0.09673034 78.25084156 -0.10034875 80.45414352 -0.10573006 C83.53113189 -0.11294892 86.60806317 -0.11399058 89.68505859 -0.11352539 C90.60359116 -0.11712067 91.52212372 -0.12071594 92.4684906 -0.12442017 C93.30424118 -0.1230455 94.13999176 -0.12167084 95.00106812 -0.12025452 C95.72928457 -0.12117631 96.45750103 -0.1220981 97.20778465 -0.12304783 C99 0 99 0 101 1 C100.34 2.32 99.68 3.64 99 5 C98.34 5 97.68 5 97 5 C96.67 5.99 96.34 6.98 96 8 C89.15483323 14.11257367 81.63142809 18.86017951 73 22 C72.14792969 22.31839844 71.29585938 22.63679688 70.41796875 22.96484375 C53.82345939 28.11650116 33.87260962 26.30267739 18.54150391 18.36328125 C11.08937764 14.25232361 5.01544383 8.990891 -1 3 C-0.67 2.01 -0.34 1.02 0 0 Z M92 1 C92 1.33 92 1.66 92 2 C62.96 2.33 33.92 2.66 4 3 C4.33 3.66 4.66 4.32 5 5 C5.66 5 6.32 5 7 5 C7.35771484 5.88365234 7.35771484 5.88365234 7.72265625 6.78515625 C12.09969791 14.37470555 23.8404458 19.21082187 31.94995117 21.56640625 C46.72062528 25.25372487 64.80082762 24.83215686 78.4453125 17.7265625 C80.3643996 16.55811463 82.17766289 15.31190362 84 14 C84.825 13.54625 85.65 13.0925 86.5 12.625 C93.66091149 7.97170902 93.66091149 7.97170902 98 1 C96.02 1 94.04 1 92 1 Z " fill="#225D85" transform="translate(51,143)"/>
<path d="M0 0 C1.48662102 1.28308018 2.96600067 2.57460524 4.4375 3.875 C5.33726562 4.56851563 6.23703125 5.26203125 7.1640625 5.9765625 C9.55719692 7.9749531 10.11208919 8.83783245 10.4375 11.875 C5.05481109 12.77655201 -0.11939015 13.0179908 -5.57128906 13.00439453 C-6.44531372 13.00614685 -7.31933838 13.00789917 -8.21984863 13.00970459 C-11.08929468 13.01408191 -13.9586784 13.0112007 -16.828125 13.0078125 C-18.82875582 13.00848648 -20.82938655 13.00945729 -22.83001709 13.01071167 C-27.01266259 13.01218285 -31.19528668 13.01005181 -35.37792969 13.00537109 C-40.74369118 12.99965936 -46.10940282 13.00296559 -51.47516251 13.00894356 C-55.60146462 13.01255222 -59.72775485 13.01140943 -63.85405731 13.00881577 C-65.83324947 13.00814811 -67.8124427 13.0089693 -69.79163361 13.01129532 C-72.551548 13.01382842 -75.31138077 13.00997256 -78.07128906 13.00439453 C-78.89107239 13.00641876 -79.71085571 13.00844299 -80.55548096 13.01052856 C-83.81778507 12.99828399 -86.44526062 12.91407979 -89.5625 11.875 C-87.55460852 5.77850047 -83.66478833 3.44660183 -78.5625 -0.125 C-77.26699219 -1.04732422 -77.26699219 -1.04732422 -75.9453125 -1.98828125 C-53.50915125 -17.17333531 -21.51967935 -17.06952409 0 0 Z M-70.16015625 -2.52734375 C-72.5625 -1.125 -72.5625 -1.125 -75.2421875 -0.05859375 C-78.09253504 1.08826326 -79.50258659 2.61574014 -81.5625 4.875 C-82.305 5.596875 -83.0475 6.31875 -83.8125 7.0625 C-85.67826575 8.57499099 -85.67826575 8.57499099 -85.5625 9.875 C-55.8625 9.875 -26.1625 9.875 4.4375 9.875 C4.7148501 6.69009993 4.7148501 6.69009993 2.4375 3.875 C1.4475 3.875 0.4575 3.875 -0.5625 3.875 C-1.0575 2.39 -1.0575 2.39 -1.5625 0.875 C-5.45325865 -1.5941353 -9.24802631 -3.50707236 -13.5625 -5.125 C-14.614375 -5.599375 -15.66625 -6.07375 -16.75 -6.5625 C-18.01817269 -7.08977862 -19.28922488 -7.61016489 -20.5625 -8.125 C-21.24699219 -8.42019531 -21.93148437 -8.71539062 -22.63671875 -9.01953125 C-37.12248497 -14.40558015 -57.37217425 -10.27106783 -70.16015625 -2.52734375 Z " fill="#1A5B7F" transform="translate(140.5625,48.125)"/>
<path d="M0 0 C13.86 0 27.72 0 42 0 C42.97851742 3.9140697 43.08667146 6.86785214 43.02172852 10.87988281 C43.01212097 11.56321686 43.00251343 12.2465509 42.99261475 12.95059204 C42.95972381 15.20154447 42.91935417 17.45229675 42.87890625 19.703125 C42.85459543 21.26681825 42.83075236 22.83051884 42.80735779 24.39422607 C42.7446125 28.50423558 42.67551894 32.61411474 42.60510254 36.72399902 C42.52188378 41.65822771 42.44655077 46.59258232 42.36989594 51.5269165 C42.25263805 59.01805819 42.12536482 66.50896983 42 74 C28.14 74 14.28 74 0 74 C0 49.58 0 25.16 0 0 Z M1 4 C0.7452328 6.95698833 0.7452328 6.95698833 0.86474609 10.46923828 C0.87420761 11.13277313 0.88366913 11.79630798 0.89341736 12.47994995 C0.92714298 14.67701496 0.9752438 16.87352111 1.0234375 19.0703125 C1.04959976 20.59201591 1.07486716 22.11373495 1.09927368 23.63546753 C1.16597266 27.64369456 1.24485468 31.6515936 1.32623291 35.6595459 C1.42132156 40.46681846 1.50135273 45.27436216 1.58389282 50.0818634 C1.71102907 57.38818259 1.85734778 64.69389302 2 72 C14.54 72 27.08 72 40 72 C40 48.9 40 25.8 40 2 C33.93625 1.95875 27.8725 1.9175 21.625 1.875 C19.71154785 1.85679199 17.7980957 1.83858398 15.82666016 1.81982422 C14.31413046 1.81398434 12.80159764 1.80888759 11.2890625 1.8046875 C10.50039795 1.79445557 9.7117334 1.78422363 8.89916992 1.77368164 C4.47984365 1.58709087 4.47984365 1.58709087 1 4 Z " fill="#4B494C" transform="translate(80,65)"/>
<path d="M0 0 C9.14866137 -1.31857931 9.14866137 -1.31857931 13.171875 1.546875 C15.13755245 4.01749711 16.17315602 5.94670633 17 9 C16.63226927 12.07514824 15.77794756 14.81845333 14.875 17.78125 C13.18422313 24.44967397 13.80998362 31.50856914 13.93701172 38.33007812 C13.95521973 39.37615234 13.97342773 40.42222656 13.9921875 41.5 C14.01651855 42.4384375 14.04084961 43.376875 14.06591797 44.34375 C13.99973645 47.01062012 13.60210595 49.40595134 13 52 C11.02 52.495 11.02 52.495 9 53 C6.39056998 46.75271754 4.00056688 40.42444665 1.6875 34.0625 C1.40890137 33.31685791 1.13030273 32.57121582 0.84326172 31.80297852 C-1.11527263 26.34581789 -1.11527263 26.34581789 0 23 C2.90474323 28.55690009 5.23485417 34.06765743 7.25 40 C7.518125 40.77472656 7.78625 41.54945312 8.0625 42.34765625 C8.71321767 44.23008951 9.35732065 46.11480725 10 48 C12.3914527 45.6085473 11.31126118 38.9873043 11.31689453 35.63452148 C11.14713169 24.37673043 7.49572133 15.33115977 2.26953125 5.4609375 C1 3 1 3 0 0 Z " fill="#686566" transform="translate(146,65)"/>
<path d="M0 0 C0.87205078 -0.01224609 1.74410156 -0.02449219 2.64257812 -0.03710938 C3.90038086 -0.04000977 3.90038086 -0.04000977 5.18359375 -0.04296875 C5.9511499 -0.04707764 6.71870605 -0.05118652 7.50952148 -0.05541992 C9.5625 0.1875 9.5625 0.1875 12.5625 2.1875 C5.91419194 4.40360269 -1.42956799 3.1875 -8.4375 3.1875 C-8.7675 20.6775 -9.0975 38.1675 -9.4375 56.1875 C-7.9525 55.6925 -7.9525 55.6925 -6.4375 55.1875 C-0.1675 55.5175 6.1025 55.8475 12.5625 56.1875 C12.5625 38.6975 12.5625 21.2075 12.5625 3.1875 C13.2225 3.1875 13.8825 3.1875 14.5625 3.1875 C14.5625 21.3375 14.5625 39.4875 14.5625 58.1875 C6.3125 58.1875 -1.9375 58.1875 -10.4375 58.1875 C-11.4375 57.1875 -11.4375 57.1875 -11.55775452 54.94126892 C-11.55553391 53.94865555 -11.55331329 52.95604218 -11.55102539 51.93334961 C-11.55094986 50.81226303 -11.55087433 49.69117645 -11.55079651 48.53611755 C-11.54563522 47.3163472 -11.54047394 46.09657684 -11.53515625 44.83984375 C-11.5337413 43.59828018 -11.53232635 42.35671661 -11.53086853 41.07752991 C-11.52620591 37.77144509 -11.51721497 34.46542854 -11.50616455 31.15936279 C-11.49594827 27.7878885 -11.49137045 24.41640717 -11.48632812 21.04492188 C-11.47527395 14.42576225 -11.45851736 7.80663507 -11.4375 1.1875 C-7.91593642 -0.57328179 -3.87858049 0.002854 0 0 Z " fill="#4A4647" transform="translate(99.4375,72.8125)"/>
<path d="M0 0 C1 3 1 3 -0.3125 6.5625 C-3.03057357 14.04343643 -3.24340491 22.143051 -4 30 C5.9 30.33 15.8 30.66 26 31 C26 39.25 26 47.5 26 56 C21.50797614 56.89840477 19.31619303 56.90338924 15 56 C15.33 55.34 15.66 54.68 16 54 C18.64 54.33 21.28 54.66 24 55 C24 48.07 24 41.14 24 34 C9.15 33.505 9.15 33.505 -6 33 C-7.70877791 29.58244418 -6.69912301 25.76772548 -6.3125 22.0625 C-6.22363525 21.20672363 -6.13477051 20.35094727 -6.04321289 19.46923828 C-4.27175336 4.27175336 -4.27175336 4.27175336 0 0 Z " fill="#4A4647" transform="translate(40,74)"/>
<path d="M0 0 C2.55579325 0.10457419 4.6468866 0.33682566 7.07421875 1.16015625 C9.20414626 3.53143532 10.07738216 6.16461196 11.07421875 9.16015625 C11.37070313 9.93746094 11.6671875 10.71476562 11.97265625 11.515625 C13.41710802 15.47130256 14.48723106 18.89236237 14.07421875 23.16015625 C11.42004085 20.00404212 10.15154811 17.00845049 8.88671875 13.09765625 C8.54253906 12.05480469 8.19835937 11.01195313 7.84375 9.9375 C7.07421875 7.16015625 7.07421875 7.16015625 7.07421875 4.16015625 C4.76421875 4.16015625 2.45421875 4.16015625 0.07421875 4.16015625 C-0.25578125 26.93015625 -0.58578125 49.70015625 -0.92578125 73.16015625 C-1.25578125 73.16015625 -1.58578125 73.16015625 -1.92578125 73.16015625 C-2.07937 63.7898794 -2.2275517 54.41953748 -2.36874485 45.04906559 C-2.43447143 40.69843411 -2.50209188 36.34784892 -2.57397461 31.99731445 C-2.64321889 27.80231487 -2.70757452 23.60726668 -2.76847649 19.41213799 C-2.79263512 17.80806165 -2.81858411 16.2040113 -2.84631538 14.59999275 C-2.88472382 12.36105542 -2.91688373 10.12211199 -2.94750977 7.88305664 C-2.96749527 6.60620499 -2.98748077 5.32935333 -3.0080719 4.0138092 C-2.89927895 0.2411165 -2.89927895 0.2411165 0 0 Z " fill="#615D5E" transform="translate(130.92578125,63.83984375)"/>
<path d="M0 0 C0.66 0 1.32 0 2 0 C2 22.77 2 45.54 2 69 C4.31 69 6.62 69 9 69 C9 59.76 9 50.52 9 41 C9.33 41 9.66 41 10 41 C10.16728213 45.11149887 10.32787468 49.22319806 10.48217773 53.33520508 C10.53566026 54.73501681 10.59099434 56.13475904 10.64819336 57.53442383 C10.72992949 59.5422896 10.80453025 61.55044187 10.87890625 63.55859375 C10.9260376 64.76829834 10.97316895 65.97800293 11.02172852 67.22436523 C11 70 11 70 10 71 C8.48071962 71.07179964 6.95832518 71.08392007 5.4375 71.0625 C4.19806641 71.04896484 4.19806641 71.04896484 2.93359375 71.03515625 C1.97646484 71.01775391 1.97646484 71.01775391 1 71 C0.86935657 62.18571696 0.7389505 53.37143045 0.60884857 44.5571394 C0.54843149 40.4644421 0.48793223 36.37174605 0.42724609 32.27905273 C0.36869841 28.33037405 0.31036537 24.38169226 0.25218201 20.43300819 C0.2299313 18.92550862 0.20760286 17.41801019 0.18519592 15.91051292 C0.15385797 13.80126614 0.12279481 11.69201548 0.09179688 9.58276367 C0.07403198 8.38141281 0.05626709 7.18006195 0.03796387 5.94230652 C0.01240809 3.96166212 0 1.98080926 0 0 Z " fill="#434041" transform="translate(127,68)"/>
<path d="M0 0 C0.804375 -0.00128906 1.60875 -0.00257813 2.4375 -0.00390625 C3.283125 -0.00003906 4.12875 0.00382813 5 0.0078125 C6.2684375 0.00201172 6.2684375 0.00201172 7.5625 -0.00390625 C8.366875 -0.00261719 9.17125 -0.00132812 10 0 C10.7425 0.00112793 11.485 0.00225586 12.25 0.00341797 C14 0.1328125 14 0.1328125 15 1.1328125 C16.96287766 1.25644547 18.93015158 1.3107669 20.89672852 1.33813477 C22.15796036 1.35807999 23.4191922 1.37802521 24.71864319 1.39857483 C26.10539627 1.41556045 27.49215066 1.43243921 28.87890625 1.44921875 C30.2899589 1.46978176 31.70100529 1.49077805 33.11204529 1.51219177 C36.8323359 1.56748005 40.55268273 1.61685936 44.27307129 1.66503906 C48.06686425 1.71520492 51.86057523 1.77091658 55.65429688 1.82617188 C63.10279523 1.93383601 70.55136159 2.03526247 78 2.1328125 C78 2.4628125 78 2.7928125 78 3.1328125 C48.3 3.1328125 18.6 3.1328125 -12 3.1328125 C-12 2.8028125 -12 2.4728125 -12 2.1328125 C-10.865625 1.9884375 -9.73125 1.8440625 -8.5625 1.6953125 C-5.04631771 1.14012582 -3.55524421 0.00540076 0 0 Z " fill="#065891" transform="translate(67,142.8671875)"/>
<path d="M0 0 C0.66 0.33 1.32 0.66 2 1 C3.46574567 5.67554314 3.14728079 10.65021374 3.125 15.5 C3.12886719 16.34175781 3.13273438 17.18351562 3.13671875 18.05078125 C3.1302433 22.16268987 3.03531987 25.99018972 2 30 C0.68 30.33 -0.64 30.66 -2 31 C-4.60943002 24.75271754 -6.99943312 18.42444665 -9.3125 12.0625 C-9.73039795 10.94403687 -9.73039795 10.94403687 -10.15673828 9.80297852 C-12.11527263 4.34581789 -12.11527263 4.34581789 -11 1 C-8.09525677 6.55690009 -5.76514583 12.06765743 -3.75 18 C-3.481875 18.77472656 -3.21375 19.54945312 -2.9375 20.34765625 C-2.28678233 22.23008951 -1.64267935 24.11480725 -1 26 C0.53465007 24.46534993 0.12964078 23.05599013 0.1328125 20.921875 C0.13410156 20.09042969 0.13539063 19.25898437 0.13671875 18.40234375 C0.13285156 17.52707031 0.12898437 16.65179688 0.125 15.75 C0.12886719 14.89019531 0.13273438 14.03039062 0.13671875 13.14453125 C0.13023224 8.93478589 -0.09215364 5.12657437 -1 1 C-0.67 0.67 -0.34 0.34 0 0 Z " fill="#504A4C" transform="translate(157,87)"/>
<path d="M0 0 C1.98 0 3.96 0 6 0 C3.89851796 3.98175544 1.63094642 6.35039045 -2 9 C-2.99 8.01 -2.99 8.01 -4 7 C-2.68 6.67 -1.36 6.34 0 6 C0 5.01 0 4.02 0 3 C-43.065 3.495 -43.065 3.495 -87 4 C-87.33 3.34 -87.66 2.68 -88 2 C-44.44 1.505 -44.44 1.505 0 1 C0 0.67 0 0.34 0 0 Z " fill="#146DAD" transform="translate(143,144)"/>
<path d="M0 0 C3.96 0 7.92 0 12 0 C11.67 0.66 11.34 1.32 11 2 C8.69 2 6.38 2 4 2 C8.85056439 8.85643689 14.64313659 12.46053057 21.890625 16.3359375 C25 18 25 18 28 20 C19.34169777 20.71288417 12.33050838 14.75350311 5.93359375 9.46484375 C3.57815176 7.35064191 1.2658615 5.20959857 -1 3 C-0.67 2.01 -0.34 1.02 0 0 Z " fill="#16527C" transform="translate(51,143)"/>
<path d="M0 0 C0.66 0.33 1.32 0.66 2 1 C-0.66666667 3.66666667 -3.33333333 6.33333333 -6 9 C25.68 9.495 25.68 9.495 58 10 C58 10.33 58 10.66 58 11 C49.42922402 11.04628427 40.85850003 11.08184919 32.28763008 11.10362434 C28.30808227 11.11407386 24.32861979 11.12825422 20.34912109 11.15087891 C16.51066114 11.17256585 12.67228341 11.18455982 8.83376694 11.18975449 C7.36729513 11.19345773 5.90082795 11.200689 4.43439102 11.21146011 C2.38470894 11.22592019 0.33536918 11.22798029 -1.71435547 11.22705078 C-2.88239716 11.231492 -4.05043884 11.23593323 -5.25387573 11.24050903 C-8 11 -8 11 -10 9 C-6.83047153 5.73991357 -3.60062011 2.77762123 0 0 Z " fill="#085790" transform="translate(62,48)"/>
<path d="M0 0 C6.6 0 13.2 0 20 0 C21.17297664 3.51892992 21.16209516 6.7091341 21.16796875 10.37109375 C21.17129715 11.0898317 21.17462555 11.80856964 21.17805481 12.54908752 C21.18311293 14.06795615 21.18546348 15.58683586 21.18530273 17.10571289 C21.18748867 19.42547972 21.2056541 21.74477044 21.22460938 24.06445312 C21.22754367 25.54166504 21.22952822 27.01887922 21.23046875 28.49609375 C21.23765427 29.18787216 21.24483978 29.87965057 21.25224304 30.59239197 C21.23353739 34.54859041 20.83168122 36.33663756 19 40 C18.67 27.46 18.34 14.92 18 2 C12.06 1.67 6.12 1.34 0 1 C0 0.67 0 0.34 0 0 Z " fill="#494144" transform="translate(54,98)"/>
<path d="M0 0 C3.80200661 -0.54797604 7.22327996 -0.79264495 11 0 C13.73315938 2.65049293 15.38763727 5.57117799 17 9 C16.34 9.66 15.68 10.32 15 11 C11 4.25 11 4.25 11 2 C8.69 2 6.38 2 4 2 C4.5053125 2.95261719 5.010625 3.90523438 5.53125 4.88671875 C6.18803215 6.15337004 6.8442527 7.42031265 7.5 8.6875 C8.00080078 9.62625977 8.00080078 9.62625977 8.51171875 10.58398438 C10.3695262 14.20481317 11.43750214 16.91404255 11 21 C7.88309097 18.37621389 6.58354417 15.30439284 4.9375 11.625 C4.43089844 10.50351563 3.92429688 9.38203125 3.40234375 8.2265625 C2.21776228 5.50103522 1.08301475 2.76712859 0 0 Z " fill="#4D4A4B" transform="translate(146,65)"/>
<path d="M0 0 C1.23556641 0.01740234 1.23556641 0.01740234 2.49609375 0.03515625 C3.32238281 0.04417969 4.14867187 0.05320312 5 0.0625 C5.63808594 0.07410156 6.27617188 0.08570312 6.93359375 0.09765625 C7.3203125 1.02449219 7.70703125 1.95132813 8.10546875 2.90625 C8.62625 4.10378906 9.14703125 5.30132812 9.68359375 6.53515625 C10.1940625 7.73011719 10.70453125 8.92507812 11.23046875 10.15625 C12.60910309 13.22517376 12.60910309 13.22517376 15.13671875 14.0078125 C15.7296875 14.03746094 16.32265625 14.06710938 16.93359375 14.09765625 C16.93359375 14.75765625 16.93359375 15.41765625 16.93359375 16.09765625 C18.91359375 16.09765625 20.89359375 16.09765625 22.93359375 16.09765625 C22.93359375 16.42765625 22.93359375 16.75765625 22.93359375 17.09765625 C19.30359375 17.09765625 15.67359375 17.09765625 11.93359375 17.09765625 C11.93359375 16.43765625 11.93359375 15.77765625 11.93359375 15.09765625 C11.27359375 15.09765625 10.61359375 15.09765625 9.93359375 15.09765625 C6.93359375 8.47265625 6.93359375 8.47265625 6.93359375 5.09765625 C5.94359375 5.09765625 4.95359375 5.09765625 3.93359375 5.09765625 C3.93359375 4.43765625 3.93359375 3.77765625 3.93359375 3.09765625 C2.28359375 3.42765625 0.63359375 3.75765625 -1.06640625 4.09765625 C-1.06640625 3.43765625 -1.06640625 2.77765625 -1.06640625 2.09765625 C-1.72640625 1.76765625 -2.38640625 1.43765625 -3.06640625 1.09765625 C-2.06640625 0.09765625 -2.06640625 0.09765625 0 0 Z " fill="#535053" transform="translate(38.06640625,113.90234375)"/>
<path d="M0 0 C3.3 0 6.6 0 10 0 C10 8.25 10 16.5 10 25 C5.50797614 25.89840477 3.31619303 25.90338924 -1 25 C-0.67 24.34 -0.34 23.68 0 23 C2.64 23.33 5.28 23.66 8 24 C8 17.07 8 10.14 8 3 C5.36 2.67 2.72 2.34 0 2 C0 1.34 0 0.68 0 0 Z " fill="#433F42" transform="translate(56,105)"/>
<path d="M0 0 C-0.33 0.66 -0.66 1.32 -1 2 C-3.0625 2.625 -3.0625 2.625 -5 3 C-5 2.34 -5 1.68 -5 1 C-13.25 1 -21.5 1 -30 1 C-30.66 2.65 -31.32 4.3 -32 6 C-32.99 6.495 -32.99 6.495 -34 7 C-33.39651202 3.62046729 -32.37248367 1.49819516 -30 -1 C-27.44384766 -1.57763672 -27.44384766 -1.57763672 -24.4140625 -1.6796875 C-22.77050781 -1.7415625 -22.77050781 -1.7415625 -21.09375 -1.8046875 C-19.37671875 -1.83949219 -19.37671875 -1.83949219 -17.625 -1.875 C-16.48804687 -1.92140625 -15.35109375 -1.9678125 -14.1796875 -2.015625 C-8.86886836 -2.17769225 -4.89136754 -2.27502865 0 0 Z " fill="#5B585C" transform="translate(75,66)"/>
<path d="M0 0 C0.33 0 0.66 0 1 0 C1 5.28 1 10.56 1 16 C-1.31 16 -3.62 16 -6 16 C-6 11.71 -6 7.42 -6 3 C-6.66 2.67 -7.32 2.34 -8 2 C-6.02 1.67 -4.04 1.34 -2 1 C-2 1.99 -2 2.98 -2 4 C-2.66 4 -3.32 4 -4 4 C-4 5.65 -4 7.3 -4 9 C-3.01 9.33 -2.02 9.66 -1 10 C-1.01160156 9.36191406 -1.02320312 8.72382812 -1.03515625 8.06640625 C-1.04417969 7.24011719 -1.05320312 6.41382812 -1.0625 5.5625 C-1.07410156 4.73878906 -1.08570312 3.91507812 -1.09765625 3.06640625 C-1 1 -1 1 0 0 Z " fill="#625F61" transform="translate(72,71)"/>
<path d="M0 0 C0.74886475 0.00523682 1.49772949 0.01047363 2.26928711 0.01586914 C3.07817383 0.0190918 3.88706055 0.02231445 4.72045898 0.02563477 C5.5705957 0.03401367 6.42073242 0.04239258 7.29663086 0.05102539 C8.15063477 0.05553711 9.00463867 0.06004883 9.88452148 0.06469727 C12.00108749 0.07652166 14.11761771 0.0944577 16.23413086 0.11352539 C16.23413086 1.10352539 16.23413086 2.09352539 16.23413086 3.11352539 C7.65413086 3.11352539 -0.92586914 3.11352539 -9.76586914 3.11352539 C-9.76586914 2.78352539 -9.76586914 2.45352539 -9.76586914 2.11352539 C-8.63149414 1.96915039 -7.49711914 1.82477539 -6.32836914 1.67602539 C-3.45149798 1.22178258 -2.50026961 0.16073903 0 0 Z " fill="#10528F" transform="translate(64.765869140625,142.886474609375)"/>
<path d="M0 0 C0.66 0 1.32 0 2 0 C6.37651981 11.19529398 6.54275489 20.23649398 5 32 C4.67 32 4.34 32 4 32 C3.96261719 30.90042969 3.92523438 29.80085938 3.88671875 28.66796875 C3.5609744 20.87393936 3.07312015 13.67261979 0.62109375 6.19921875 C0 4 0 4 0 0 Z " fill="#534F50" transform="translate(162,76)"/>
<path d="M0 0 C3.9166043 -0.0580966 7.83309763 -0.09362893 11.75 -0.125 C12.86117187 -0.14175781 13.97234375 -0.15851562 15.1171875 -0.17578125 C16.72207031 -0.18544922 16.72207031 -0.18544922 18.359375 -0.1953125 C19.34389648 -0.20578613 20.32841797 -0.21625977 21.34277344 -0.22705078 C24.05973111 0.00510382 25.68112513 0.60963727 28 2 C23.5099458 3.27280626 19.19944686 3.1839845 14.5625 3.1875 C13.2930957 3.20586914 13.2930957 3.20586914 11.99804688 3.22460938 C7.54953128 3.23506008 4.04266513 3.10019359 0 1 C0 0.67 0 0.34 0 0 Z " fill="#1C5D97" transform="translate(120,58)"/>
<path d="M0 0 C-1.98 0.33 -3.96 0.66 -6 1 C-6 1.66 -6 2.32 -6 3 C-7.74122549 4.03572896 -9.49336595 5.0531252 -11.25 6.0625 C-12.71179688 6.91521484 -12.71179688 6.91521484 -14.203125 7.78515625 C-17 9 -17 9 -19.359375 8.68359375 C-19.90078125 8.45800781 -20.4421875 8.23242188 -21 8 C-6.78101541 -2.1705237 -6.78101541 -2.1705237 0 0 Z " fill="#195A82" transform="translate(85,39)"/>
<path d="M0 0 C1.5625 1.4375 1.5625 1.4375 3 4 C3.14856072 7.91917323 3.08986233 11.64511651 0.5703125 14.77734375 C-1 16 -1 16 -3 16 C-2.67 15.01 -2.34 14.02 -2 13 C-0.80947943 8.92059385 -0.92708406 5.2291248 -1 1 C-0.67 0.67 -0.34 0.34 0 0 Z " fill="#605F5F" transform="translate(159,72)"/>
<path d="M0 0 C0.66 0 1.32 0 2 0 C2.84334329 2.22582389 3.67478551 4.45496026 4.5 6.6875 C4.73847656 7.31333984 4.97695312 7.93917969 5.22265625 8.58398438 C6.5412725 12.18192299 7.29329235 15.16520253 7 19 C4.3458221 15.84388587 3.07732936 12.84829424 1.8125 8.9375 C1.46832031 7.89464844 1.12414062 6.85179688 0.76953125 5.77734375 C0 3 0 3 0 0 Z " fill="#484548" transform="translate(138,68)"/>
<path d="M0 0 C0.99 0 1.98 0 3 0 C3 0.66 3 1.32 3 2 C4.32 2.33 5.64 2.66 7 3 C6.01 3 5.02 3 4 3 C3.67 5.64 3.34 8.28 3 11 C2.62875 10.0409375 2.62875 10.0409375 2.25 9.0625 C1.18437567 6.81258459 1.18437567 6.81258459 -1.125 6.25 C-1.74375 6.1675 -2.3625 6.085 -3 6 C-3 4 -3 4 -1.5 2.4375 C-0.7575 1.7259375 -0.7575 1.7259375 0 1 C0 0.67 0 0.34 0 0 Z " fill="#616060" transform="translate(113,69)"/>
<path d="M0 0 C6.6 0 13.2 0 20 0 C21.28317892 3.84953676 21.06643637 6.94738135 21 11 C20.01 11.495 20.01 11.495 19 12 C18.505 7.05 18.505 7.05 18 2 C12.06 1.67 6.12 1.34 0 1 C0 0.67 0 0.34 0 0 Z " fill="#403C3D" transform="translate(54,98)"/>
<path d="M0 0 C2.97 1.65 5.94 3.3 9 5 C9 5.66 9 6.32 9 7 C9.99 7 10.98 7 12 7 C11.67 8.32 11.34 9.64 11 11 C9.68 11 8.36 11 7 11 C6 8 6 8 7 5 C4.03 4.505 4.03 4.505 1 4 C0.67 2.68 0.34 1.36 0 0 Z " fill="#0571B0" transform="translate(131,45)"/>
<path d="M0 0 C2.24658203 -0.34057617 2.24658203 -0.34057617 5.0078125 -0.29296875 C5.99394531 -0.28330078 6.98007812 -0.27363281 7.99609375 -0.26367188 C9.02863281 -0.23853516 10.06117187 -0.21339844 11.125 -0.1875 C12.68541016 -0.16719727 12.68541016 -0.16719727 14.27734375 -0.14648438 C16.85207627 -0.11105228 19.4257833 -0.06165221 22 0 C22 0.33 22 0.66 22 1 C15.07 1 8.14 1 1 1 C0.34 2.65 -0.32 4.3 -1 6 C-1.99 6.495 -1.99 6.495 -3 7 C-2.38722388 4.03824877 -1.74627478 2.61941217 0 0 Z " fill="#474546" transform="translate(44,66)"/>
<path d="M0 0 C-2.10148204 3.98175544 -4.36905358 6.35039045 -8 9 C-8.66 8.34 -9.32 7.68 -10 7 C-8.68 6.67 -7.36 6.34 -6 6 C-6 5.01 -6 4.02 -6 3 C-6.99 2.67 -7.98 2.34 -9 2 C-5.5647952 -0.29013653 -4.014669 -0.17842973 0 0 Z " fill="#1B68A3" transform="translate(149,144)"/>
<path d="M0 0 C0.598125 0.825 1.19625 1.65 1.8125 2.5 C2.8953125 3.7375 2.8953125 3.7375 4 5 C4.99 5 5.98 5 7 5 C7 5.66 7 6.32 7 7 C8.98 7 10.96 7 13 7 C13 7.33 13 7.66 13 8 C9.37 8 5.74 8 2 8 C2 7.34 2 6.68 2 6 C1.34 6 0.68 6 0 6 C-0.38218767 4.34385343 -0.71395102 2.67542976 -1 1 C-0.67 0.67 -0.34 0.34 0 0 Z " fill="#4F4A4D" transform="translate(48,123)"/>
<path d="M0 0 C0.66 0 1.32 0 2 0 C1.61503694 5.2611618 -0.22615048 9.31340712 -4 13 C-4.99 13 -5.98 13 -7 13 C-7 12.01 -7 11.02 -7 10 C-6.01 9.67 -5.02 9.34 -4 9 C-1.96039529 6.0974856 -0.64658926 3.49158202 0 0 Z " fill="#433E41" transform="translate(161,126)"/>
<path d="M0 0 C3.96 0 7.92 0 12 0 C11.67 0.66 11.34 1.32 11 2 C8.69 2 6.38 2 4 2 C3.67 2.66 3.34 3.32 3 4 C3 3.34 3 2.68 3 2 C2.34 2 1.68 2 1 2 C0.67 2.66 0.34 3.32 0 4 C0 2.68 0 1.36 0 0 Z " fill="#42607C" transform="translate(51,143)"/>
<path d="M0 0 C-1.11375 0.6496875 -1.11375 0.6496875 -2.25 1.3125 C-4.9759487 2.8981141 -4.9759487 2.8981141 -7.125 4.75 C-7.74375 5.1625 -8.3625 5.575 -9 6 C-9.99 5.67 -10.98 5.34 -12 5 C-4.50757576 -1.35227273 -4.50757576 -1.35227273 0 0 Z " fill="#0F6AAE" transform="translate(140,154)"/>
<path d="M0 0 C0.66 0.99 1.32 1.98 2 3 C1.67 3.99 1.34 4.98 1 6 C0.34 6 -0.32 6 -1 6 C-1.33 6.99 -1.66 7.98 -2 9 C-4.95768661 7.5211567 -4.88852845 7.33441464 -6 4 C-4.7934375 3.566875 -4.7934375 3.566875 -3.5625 3.125 C-0.8673532 2.26737432 -0.8673532 2.26737432 0 0 Z " fill="#605E5F" transform="translate(46,69)"/>
<path d="M0 0 C2.97 0.33 5.94 0.66 9 1 C9.33 1.99 9.66 2.98 10 4 C6.37 4 2.74 4 -1 4 C-0.67 2.68 -0.34 1.36 0 0 Z " fill="#555459" transform="translate(129,64)"/>
<path d="M0 0 C0 0.66 0 1.32 0 2 C-7.26 1.67 -14.52 1.34 -22 1 C-22 0.67 -22 0.34 -22 0 C-19.45873828 -0.19617816 -16.91739541 -0.38217248 -14.375 -0.5625 C-13.66214844 -0.61857422 -12.94929688 -0.67464844 -12.21484375 -0.73242188 C-7.96331896 -1.02495798 -4.20543653 -0.89547939 0 0 Z " fill="#60615F" transform="translate(70,69)"/>
<path d="M0 0 C0.66 0.33 1.32 0.66 2 1 C-0.66666667 3.66666667 -3.33333333 6.33333333 -6 9 C-6.99 8.67 -7.98 8.34 -9 8 C-6.14723863 5.06799526 -3.34920216 2.35684596 0 0 Z " fill="#155579" transform="translate(62,48)"/>
<path d="M0 0 C0.99 0.33 1.98 0.66 3 1 C3.66 0.67 4.32 0.34 5 0 C4.814375 0.9075 4.62875 1.815 4.4375 2.75 C4.04265379 5.68314324 4.05308428 7.2644657 5 10 C4.01 10.495 4.01 10.495 3 11 C2.01 7.37 1.02 3.74 0 0 Z " fill="#606060" transform="translate(140,93)"/>
<path d="M0 0 C0.33 1.32 0.66 2.64 1 4 C1.66 4 2.32 4 3 4 C2.34 5.32 1.68 6.64 1 8 C0.34 8 -0.32 8 -1 8 C-1.33 8.99 -1.66 9.98 -2 11 C-2.33 9.02 -2.66 7.04 -3 5 C-2.01 5.33 -1.02 5.66 0 6 C0 4.02 0 2.04 0 0 Z " fill="#6C6B6B" transform="translate(40,83)"/>
<path d="M0 0 C1.546875 0.185625 1.546875 0.185625 3.125 0.375 C5 2.875 5 2.875 6.125 5.375 C5.135 5.375 4.145 5.375 3.125 5.375 C3.125 4.715 3.125 4.055 3.125 3.375 C1.475 3.705 -0.175 4.035 -1.875 4.375 C-1.875 3.715 -1.875 3.055 -1.875 2.375 C-2.535 2.045 -3.195 1.715 -3.875 1.375 C-2.875 0.375 -2.875 0.375 0 0 Z " fill="#595559" transform="translate(38.875,113.625)"/>
<path d="M0 0 C0.66 0 1.32 0 2 0 C3.31626692 3.61973402 4 6.09567131 4 10 C3.34 10 2.68 10 2 10 C0.68373308 6.38026598 0 3.90432869 0 0 Z " fill="#4C4647" transform="translate(162,76)"/>
<path d="M0 0 C2.27795022 2.27795022 3.05219877 3.93787293 4 7 C3.55078125 9.1640625 3.55078125 9.1640625 3 11 C2.30300448 9.54618103 1.61766134 8.08677047 0.9375 6.625 C0.55464844 5.81289062 0.17179688 5.00078125 -0.22265625 4.1640625 C-0.47917969 3.44992188 -0.73570312 2.73578125 -1 2 C-0.67 1.34 -0.34 0.68 0 0 Z " fill="#474344" transform="translate(141,99)"/>
<path d="M0 0 C2.31 0 4.62 0 7 0 C5.6875 2.5 5.6875 2.5 4 5 C3.01 5 2.02 5 1 5 C0.67 3.35 0.34 1.7 0 0 Z " fill="#636162" transform="translate(150,67)"/>
<path d="M0 0 C1.37562854 1.28965176 2.70766393 2.62689293 4 4 C4 4.66 4 5.32 4 6 C1.69 5.67 -0.62 5.34 -3 5 C-2.505 4.54625 -2.01 4.0925 -1.5 3.625 C0.22609337 2.12364481 0.22609337 2.12364481 0 0 Z " fill="#235B82" transform="translate(147,54)"/>
<path d="M0 0 C0.66 0.99 1.32 1.98 2 3 C1.030625 3.28875 0.06125 3.5775 -0.9375 3.875 C-4.10664203 4.64214682 -4.10664203 4.64214682 -5 7 C-5.66 6.67 -6.32 6.34 -7 6 C-2.25 1.125 -2.25 1.125 0 0 Z " fill="#126CA6" transform="translate(62,51)"/>
<path d="M0 0 C1.45823212 -0.0270043 2.91660675 -0.04639787 4.375 -0.0625 C5.18710938 -0.07410156 5.99921875 -0.08570313 6.8359375 -0.09765625 C9 0 9 0 11 1 C11 1.66 11 2.32 11 3 C7.37 2.34 3.74 1.68 0 1 C0 0.67 0 0.34 0 0 Z " fill="#12507B" transform="translate(112,38)"/>
<path d="M0 0 C1.32 0.33 2.64 0.66 4 1 C4 1.66 4 2.32 4 3 C3.34 3 2.68 3 2 3 C1.67 3.99 1.34 4.98 1 6 C-1.0625 6.6875 -1.0625 6.6875 -3 7 C-1.68 5.35 -0.36 3.7 1 2 C0.67 1.34 0.34 0.68 0 0 Z " fill="#0B4667" transform="translate(146,145)"/>
<path d="M0 0 C2.475 0.99 2.475 0.99 5 2 C4.67 2.66 4.34 3.32 4 4 C1.9375 4.625 1.9375 4.625 0 5 C0 4.34 0 3.68 0 3 C-1.32 2.67 -2.64 2.34 -4 2 C-2.68 2 -1.36 2 0 2 C0 1.34 0 0.68 0 0 Z " fill="#515157" transform="translate(70,64)"/>
<path d="M0 0 C2.97 1.65 5.94 3.3 9 5 C7 6 7 6 3.9375 5.3125 C2.968125 4.879375 1.99875 4.44625 1 4 C0.67 2.68 0.34 1.36 0 0 Z " fill="#1069A9" transform="translate(131,45)"/>
<path d="M0 0 C0.33 0.66 0.66 1.32 1 2 C0.34 2 -0.32 2 -1 2 C-1.33 3.32 -1.66 4.64 -2 6 C-3.65 5.67 -5.3 5.34 -7 5 C-2.25 1.125 -2.25 1.125 0 0 Z " fill="#0F74B7" transform="translate(79,41)"/>
<path d="M0 0 C2.97 0.495 2.97 0.495 6 1 C6 1.99 6 2.98 6 4 C6.66 4.33 7.32 4.66 8 5 C5.07120629 4.37240135 2.63904371 3.41377341 0 2 C0 1.34 0 0.68 0 0 Z " fill="#1A5A8B" transform="translate(123,40)"/>
</svg>
